<?xml version="1.0" encoding="utf-8"?>
<!-- Generator: Adobe Illustrator 19.0.0, SVG Export Plug-In . SVG Version: 6.00 Build 0)  -->
<svg version="1.1" id="Layer_1" xmlns="http://www.w3.org/2000/svg" xmlns:xlink="http://www.w3.org/1999/xlink" x="0px" y="0px"
	 viewBox="-293 386 23 23" style="enable-background:new -293 386 23 23;" xml:space="preserve">
<style type="text/css">
	.st0{fill:#262626;}
	.st1{fill-rule:evenodd;clip-rule:evenodd;fill:#262626;}
</style>
<path class="st0" d="M-281.5,386c3.2,0,6,1.3,8.1,3.4c2.1,2.1,3.4,5,3.4,8.1c0,3.2-1.3,6-3.4,8.1c-2.1,2.1-5,3.4-8.1,3.4
	s-6-1.3-8.1-3.4c-2.1-2.1-3.4-5-3.4-8.1c0-3.2,1.3-6,3.4-8.1C-287.5,387.3-284.7,386-281.5,386L-281.5,386z M-274,390
	c-1.9-1.9-4.6-3.1-7.5-3.1c-2.9,0-5.6,1.2-7.5,3.1c-1.9,1.9-3.1,4.6-3.1,7.5c0,2.9,1.2,5.6,3.1,7.5c1.9,1.9,4.6,3.1,7.5,3.1
	c2.9,0,5.6-1.2,7.5-3.1c1.9-1.9,3.1-4.6,3.1-7.5C-270.9,394.6-272.1,391.9-274,390L-274,390z"/>
<path class="st1" d="M-280.6,395.1v-0.9c0-0.5,0.3-0.6,0.5-0.6c0.2,0,1.3,0,1.3,0v-2h-1.8c-2,0-2.5,1.5-2.5,2.5v1.1h-1.2v1.4v0.9
	h1.2c0,2.7,0,5.9,0,5.9h2.3c0,0,0-3.2,0-5.9h1.7l0.1-0.9l0.1-1.4H-280.6z"/>
</svg>
