<?xml version="1.0" encoding="utf-8"?>
<!-- Generator: Adobe Illustrator 19.0.0, SVG Export Plug-In . SVG Version: 6.00 Build 0)  -->
<svg version="1.1" id="Layer_1" xmlns="http://www.w3.org/2000/svg" xmlns:xlink="http://www.w3.org/1999/xlink" x="0px" y="0px"
	 viewBox="-293 386 23 23" style="enable-background:new -293 386 23 23;" xml:space="preserve">
<style type="text/css">
	.st0{fill:#262626;}
	.st1{fill-rule:evenodd;clip-rule:evenodd;fill:#262626;}
</style>
<path class="st0" d="M-281.5,386c3.2,0,6,1.3,8.1,3.4c2.1,2.1,3.4,5,3.4,8.1c0,3.2-1.3,6-3.4,8.1c-2.1,2.1-5,3.4-8.1,3.4
	c-3.2,0-6-1.3-8.1-3.4c-2.1-2.1-3.4-5-3.4-8.1c0-3.2,1.3-6,3.4-8.1C-287.5,387.3-284.7,386-281.5,386L-281.5,386z M-274,390
	c-1.9-1.9-4.6-3.1-7.5-3.1c-2.9,0-5.6,1.2-7.5,3.1c-1.9,1.9-3.1,4.6-3.1,7.5c0,2.9,1.2,5.6,3.1,7.5c1.9,1.9,4.6,3.1,7.5,3.1
	c2.9,0,5.6-1.2,7.5-3.1c1.9-1.9,3.1-4.6,3.1-7.5C-270.9,394.6-272.1,391.9-274,390L-274,390z"/>
<path class="st1" d="M-280.3,396.7c-0.8,0-1.7,0-2.5,0c-0.2,0-0.5,0-0.7,0c-0.1,0-0.1,0.1-0.1,0.1c0,0.5,0,1,0,1.5
	c0.7,0,1.4,0,2.1,0c0,0.1,0,0.2-0.1,0.2c-0.3,0.9-1.3,1.4-2.3,1.2c-1.3-0.2-2.1-1.4-1.9-2.7c0-0.2,0.1-0.4,0.2-0.5
	c0.4-0.9,1.5-1.5,2.5-1.3c0.4,0.1,0.7,0.3,1,0.5c0.4-0.4,0.7-0.7,1.1-1.1c0,0-0.1-0.1-0.1-0.1c-0.9-0.8-2-1.1-3.1-0.9
	c-1.7,0.3-2.9,1.6-3.2,3.2c-0.1,0.7-0.1,1.4,0.2,2.1c0.6,1.6,2.3,2.7,4.1,2.5c0.9-0.1,1.6-0.4,2.2-1.1c0.9-1,1.1-2.1,1-3.4
	C-280,396.7-280.1,396.7-280.3,396.7L-280.3,396.7z M-276.5,396.8c-0.1,0-0.2,0-0.3,0c0,0,0,0,0-0.1c0-0.1,0-0.1,0-0.2
	c0-0.3,0-0.6,0-1c0-0.1-0.1-0.1-0.1-0.1c-0.3,0-0.6,0-0.9,0c0,0.4,0,0.8,0,1.1c0,0.1,0,0.1,0,0.2c-0.5,0-0.9,0-1.4,0
	c0,0.1,0,0.2,0,0.2c0,0.2,0,0.5,0,0.7c0.2,0,0.5,0,0.7,0c0.2,0,0.4,0,0.6,0c0,0.5,0,0.9,0,1.3c0.3,0,0.6,0,1,0c0-0.4,0-0.9,0-1.3
	c0.5,0,0.9,0,1.3,0c0-0.3,0-0.5,0-0.8c0-0.1,0-0.2,0-0.2C-275.7,396.8-276.1,396.8-276.5,396.8L-276.5,396.8z"/>
</svg>
