<?xml version="1.0" encoding="utf-8"?>
<!-- Generator: Adobe Illustrator 19.0.0, SVG Export Plug-In . SVG Version: 6.00 Build 0)  -->
<svg version="1.1" id="Layer_1" xmlns="http://www.w3.org/2000/svg" xmlns:xlink="http://www.w3.org/1999/xlink" x="0px" y="0px"
	 viewBox="-294 385 23 23" style="enable-background:new -294 385 23 23;" xml:space="preserve">
<style type="text/css">
	.st0{fill:#FFFFFF;}
</style>
<path class="st0" d="M-282.5,385c3.2,0,6,1.3,8.1,3.4s3.4,5,3.4,8.1c0,3.2-1.3,6-3.4,8.1s-5,3.4-8.1,3.4c-3.2,0-6-1.3-8.1-3.4
	s-3.4-5-3.4-8.1c0-3.2,1.3-6,3.4-8.1S-285.7,385-282.5,385L-282.5,385z M-275,389c-1.9-1.9-4.6-3.1-7.5-3.1s-5.6,1.2-7.5,3.1
	s-3.1,4.6-3.1,7.5s1.2,5.6,3.1,7.5s4.6,3.1,7.5,3.1s5.6-1.2,7.5-3.1s3.1-4.6,3.1-7.5S-273.1,390.9-275,389L-275,389z"/>
<path class="st0" d="M-281.3,395.7c-0.8,0-1.7,0-2.5,0c-0.2,0-0.5,0-0.7,0c-0.1,0-0.1,0.1-0.1,0.1c0,0.5,0,1,0,1.5
	c0.7,0,1.4,0,2.1,0c0,0.1,0,0.2-0.1,0.2c-0.3,0.9-1.3,1.4-2.3,1.2c-1.3-0.2-2.1-1.4-1.9-2.7c0-0.2,0.1-0.4,0.2-0.5
	c0.4-0.9,1.5-1.5,2.5-1.3c0.4,0.1,0.7,0.3,1,0.5c0.4-0.4,0.7-0.7,1.1-1.1l-0.1-0.1c-0.9-0.8-2-1.1-3.1-0.9c-1.7,0.3-2.9,1.6-3.2,3.2
	c-0.1,0.7-0.1,1.4,0.2,2.1c0.6,1.6,2.3,2.7,4.1,2.5c0.9-0.1,1.6-0.4,2.2-1.1c0.9-1,1.1-2.1,1-3.4
	C-281,395.7-281.1,395.7-281.3,395.7L-281.3,395.7z M-277.5,395.8c-0.1,0-0.2,0-0.3,0c0,0,0,0,0-0.1s0-0.1,0-0.2c0-0.3,0-0.6,0-1
	c0-0.1-0.1-0.1-0.1-0.1c-0.3,0-0.6,0-0.9,0c0,0.4,0,0.8,0,1.1c0,0.1,0,0.1,0,0.2c-0.5,0-0.9,0-1.4,0c0,0.1,0,0.2,0,0.2
	c0,0.2,0,0.5,0,0.7c0.2,0,0.5,0,0.7,0s0.4,0,0.6,0c0,0.5,0,0.9,0,1.3c0.3,0,0.6,0,1,0c0-0.4,0-0.9,0-1.3c0.5,0,0.9,0,1.3,0
	c0-0.3,0-0.5,0-0.8c0-0.1,0-0.2,0-0.2C-276.7,395.8-277.1,395.8-277.5,395.8L-277.5,395.8z"/>
</svg>
