<?xml version="1.0" encoding="utf-8"?>
<!-- Generator: Adobe Illustrator 19.0.0, SVG Export Plug-In . SVG Version: 6.00 Build 0)  -->
<svg version="1.1" id="Layer_1" xmlns="http://www.w3.org/2000/svg" xmlns:xlink="http://www.w3.org/1999/xlink" x="0px" y="0px"
	 viewBox="-294 385 23 23" style="enable-background:new -294 385 23 23;" xml:space="preserve">
<style type="text/css">
	.st0{fill:#FFFFFF;}
</style>
<path class="st0" d="M-282.5,385c3.2,0,6,1.3,8.1,3.4s3.4,5,3.4,8.1c0,3.2-1.3,6-3.4,8.1s-5,3.4-8.1,3.4c-3.2,0-6-1.3-8.1-3.4
	s-3.4-5-3.4-8.1c0-3.2,1.3-6,3.4-8.1S-285.7,385-282.5,385L-282.5,385z M-275,389c-1.9-1.9-4.6-3.1-7.5-3.1s-5.6,1.2-7.5,3.1
	s-3.1,4.6-3.1,7.5s1.2,5.6,3.1,7.5s4.6,3.1,7.5,3.1s5.6-1.2,7.5-3.1s3.1-4.6,3.1-7.5S-273.1,390.9-275,389L-275,389z"/>
<path class="st0" d="M-287.8,390.3v5.1h2.4v-5.5v-1.4h-2.4V390.3z M-277.5,390.6c-0.2-1.3-0.8-2.1-2.5-2.1c-1,0-1.7,0.4-2,0.9l0,0
	v-0.9h-1.9v1.3v5.6h2V392c0-0.9,0.2-1.8,1.3-1.8s1.2,1,1.2,1.8v3.4h2.1v-3.8C-277.3,391.2-277.3,390.9-277.5,390.6L-277.5,390.6z
	 M-286.5,385c-0.7,0-1.2,0.5-1.2,1.2s0.5,1.2,1.2,1.2s1.2-0.5,1.2-1.2S-285.8,385-286.5,385L-286.5,385z"/>
</svg>
