<?xml version="1.0" encoding="utf-8"?>
<!-- Generator: Adobe Illustrator 19.0.0, SVG Export Plug-In . SVG Version: 6.00 Build 0)  -->
<svg version="1.1" id="Layer_1" xmlns="http://www.w3.org/2000/svg" xmlns:xlink="http://www.w3.org/1999/xlink" x="0px" y="0px"
	 viewBox="-293 386 23 23" style="enable-background:new -293 386 23 23;" xml:space="preserve">
<style type="text/css">
	.st0{fill:#262626;}
	.st1{fill-rule:evenodd;clip-rule:evenodd;fill:#262626;}
</style>
<path class="st0" d="M-281.5,386c3.2,0,6,1.3,8.1,3.4c2.1,2.1,3.4,5,3.4,8.1c0,3.2-1.3,6-3.4,8.1c-2.1,2.1-5,3.4-8.1,3.4
	c-3.2,0-6-1.3-8.1-3.4c-2.1-2.1-3.4-5-3.4-8.1c0-3.2,1.3-6,3.4-8.1C-287.5,387.3-284.7,386-281.5,386L-281.5,386z M-274,390
	c-1.9-1.9-4.6-3.1-7.5-3.1c-2.9,0-5.6,1.2-7.5,3.1c-1.9,1.9-3.1,4.6-3.1,7.5c0,2.9,1.2,5.6,3.1,7.5c1.9,1.9,4.6,3.1,7.5,3.1
	c2.9,0,5.6-1.2,7.5-3.1c1.9-1.9,3.1-4.6,3.1-7.5C-270.9,394.6-272.1,391.9-274,390L-274,390z"/>
<path class="st1" d="M-286.7,397.6v5.1h2.4v-5.5v-1.4h-2.4V397.6z M-276.4,397.9c-0.2-1.3-0.8-2.1-2.5-2.1c-1,0-1.7,0.4-2,0.9h0
	v-0.9h-1.9v1.3v5.6h2v-3.4c0-0.9,0.2-1.8,1.3-1.8c1.1,0,1.2,1,1.2,1.8v3.4h2.1v-3.8C-276.3,398.5-276.3,398.2-276.4,397.9
	L-276.4,397.9z M-285.5,392.3c-0.7,0-1.2,0.5-1.2,1.2c0,0.7,0.5,1.2,1.2,1.2c0.7,0,1.2-0.5,1.2-1.2
	C-284.3,392.8-284.8,392.3-285.5,392.3L-285.5,392.3z"/>
</svg>
