<?xml version="1.0" encoding="utf-8"?>
<!-- Generator: Adobe Illustrator 19.0.0, SVG Export Plug-In . SVG Version: 6.00 Build 0)  -->
<svg version="1.1" id="Layer_1" xmlns="http://www.w3.org/2000/svg" xmlns:xlink="http://www.w3.org/1999/xlink" x="0px" y="0px"
	 viewBox="-293 386 23 23" style="enable-background:new -293 386 23 23;" xml:space="preserve">
<style type="text/css">
	.st0{fill:#262626;}
	.st1{fill-rule:evenodd;clip-rule:evenodd;fill:#262626;}
</style>
<path class="st0" d="M-281.2,385.9c3.2,0,6,1.3,8.1,3.4c2.1,2.1,3.4,5,3.4,8.1c0,3.2-1.3,6-3.4,8.1c-2.1,2.1-5,3.4-8.1,3.4
	c-3.2,0-6-1.3-8.1-3.4c-2.1-2.1-3.4-5-3.4-8.1c0-3.2,1.3-6.1,3.4-8.1C-287.2,387.2-284.3,385.9-281.2,385.9L-281.2,385.9z
	 M-273.7,389.9c-1.9-1.9-4.6-3.1-7.5-3.1c-2.9,0-5.6,1.2-7.5,3.1c-1.9,1.9-3.1,4.6-3.1,7.5c0,2.9,1.2,5.6,3.1,7.5
	c1.9,1.9,4.6,3.1,7.5,3.1c2.9,0,5.6-1.2,7.5-3.1c1.9-1.9,3.1-4.6,3.1-7.5C-270.6,394.5-271.7,391.8-273.7,389.9L-273.7,389.9z"/>
<path class="st1" d="M-275.3,393.8c-0.4,0.2-0.9,0.3-1.4,0.4c0.5-0.3,0.9-0.8,1.1-1.3c-0.5,0.3-1,0.5-1.5,0.6
	c-0.4-0.5-1.1-0.8-1.8-0.8c-1.3,0-2.4,1.1-2.4,2.4c0,0.2,0,0.4,0.1,0.5c-2-0.1-3.8-1-5-2.5c-0.2,0.4-0.3,0.8-0.3,1.2
	c0,0.8,0.4,1.6,1.1,2c-0.4,0-0.8-0.1-1.1-0.3c0,0,0,0,0,0c0,0.3,0.1,0.6,0.2,0.9c0.3,0.7,1,1.3,1.8,1.5c-0.2,0.1-0.4,0.1-0.6,0.1
	c-0.2,0-0.3,0-0.5-0.1c0.3,0.9,1.2,1.6,2.2,1.7c-0.8,0.6-1.9,1-3,1c-0.2,0-0.4,0-0.6,0c1.1,0.7,2.3,1.1,3.7,1.1
	c3.8,0,6.1-2.6,6.7-5.3c0.1-0.5,0.2-1,0.2-1.4c0-0.1,0-0.2,0-0.3C-276,394.7-275.6,394.3-275.3,393.8L-275.3,393.8z"/>
</svg>
