<?xml version="1.0" encoding="utf-8"?>
<!-- Generator: Adobe Illustrator 19.0.0, SVG Export Plug-In . SVG Version: 6.00 Build 0)  -->
<svg version="1.1" id="Layer_1" xmlns="http://www.w3.org/2000/svg" xmlns:xlink="http://www.w3.org/1999/xlink" x="0px" y="0px"
	 viewBox="-293 386 23 23" style="enable-background:new -293 386 23 23;" xml:space="preserve">
<style type="text/css">
	.st0{fill:#262626;}
	.st1{fill-rule:evenodd;clip-rule:evenodd;fill:#262626;}
</style>
<path class="st0" d="M-281.5,386c3.2,0,6,1.3,8.1,3.4c2.1,2.1,3.4,5,3.4,8.1c0,3.2-1.3,6-3.4,8.1c-2.1,2.1-5,3.4-8.1,3.4
	c-3.2,0-6.1-1.3-8.1-3.4c-2.1-2.1-3.4-5-3.4-8.1c0-3.2,1.3-6,3.4-8.1C-287.5,387.3-284.7,386-281.5,386L-281.5,386z M-274,390
	c-1.9-1.9-4.6-3.1-7.5-3.1c-2.9,0-5.6,1.2-7.5,3.1c-1.9,1.9-3.1,4.6-3.1,7.5c0,2.9,1.2,5.6,3.1,7.5c1.9,1.9,4.6,3.1,7.5,3.1
	c2.9,0,5.6-1.2,7.5-3.1c1.9-1.9,3.1-4.6,3.1-7.5C-270.9,394.6-272.1,391.9-274,390L-274,390z"/>
<path class="st1" d="M-275.6,397.2c-0.1-3.1-2.6-5.6-5.8-5.6c-3.1,0-5.6,2.4-5.7,5.5c0,0.1,0,0.2,0,0.2c0,1.1,0.3,2.1,0.8,3l-1,3.1
	l3.2-1c0.8,0.5,1.8,0.7,2.8,0.7c3.2,0,5.8-2.6,5.8-5.7C-275.6,397.3-275.6,397.2-275.6,397.2L-275.6,397.2z M-278.7,398.5
	c-0.1-0.1-0.8-0.4-1-0.5c-0.1,0-0.2-0.1-0.3,0.1c-0.1,0.1-0.4,0.5-0.4,0.5c-0.1,0.1-0.2,0.1-0.3,0c-0.2-0.1-0.6-0.2-1.1-0.7
	c-0.4-0.4-0.7-0.8-0.8-1c-0.1-0.2,0-0.2,0.1-0.3c0.1-0.1,0.1-0.2,0.2-0.2c0,0,0,0,0.1-0.1c0-0.1,0.1-0.1,0.1-0.2
	c0.1-0.1,0-0.2,0-0.2c0-0.1-0.3-0.8-0.4-1c-0.1-0.3-0.2-0.2-0.3-0.2c-0.1,0-0.2,0-0.3,0c-0.1,0-0.2,0-0.4,0.2
	c-0.1,0.1-0.5,0.5-0.5,1.2c0,0.2,0,0.3,0.1,0.5c0.1,0.5,0.5,0.9,0.5,1c0.1,0.1,1,1.6,2.4,2.1c1.4,0.6,1.4,0.4,1.7,0.4
	c0.3,0,0.8-0.3,1-0.7c0.1-0.3,0.1-0.6,0.1-0.7C-278.5,398.6-278.6,398.5-278.7,398.5L-278.7,398.5z M-281.4,402.1
	c-1,0-1.9-0.3-2.7-0.8l-1.9,0.6l0.6-1.8c-0.6-0.8-0.9-1.8-0.9-2.8c0-0.2,0-0.3,0-0.5c0.2-2.4,2.3-4.3,4.8-4.3c2.5,0,4.6,2,4.8,4.4
	c0,0.1,0,0.3,0,0.4C-276.5,400-278.7,402.1-281.4,402.1L-281.4,402.1z"/>
</svg>
