<?xml version="1.0" encoding="utf-8"?>
<!-- Generator: Adobe Illustrator 19.0.0, SVG Export Plug-In . SVG Version: 6.00 Build 0)  -->
<svg version="1.1" id="Layer_1" xmlns="http://www.w3.org/2000/svg" xmlns:xlink="http://www.w3.org/1999/xlink" x="0px" y="0px"
	 viewBox="-294 385 23 23" style="enable-background:new -294 385 23 23;" xml:space="preserve">
<style type="text/css">
	.st0{fill:#FFFFFF;}
</style>
<path class="st0" d="M-282.5,385c3.2,0,6,1.3,8.1,3.4s3.4,5,3.4,8.1c0,3.2-1.3,6-3.4,8.1s-5,3.4-8.1,3.4s-6-1.3-8.1-3.4
	s-3.4-5-3.4-8.1c0-3.2,1.3-6,3.4-8.1S-285.7,385-282.5,385L-282.5,385z M-275,389c-1.9-1.9-4.6-3.1-7.5-3.1s-5.6,1.2-7.5,3.1
	s-3.1,4.6-3.1,7.5s1.2,5.6,3.1,7.5s4.6,3.1,7.5,3.1s5.6-1.2,7.5-3.1s3.1-4.6,3.1-7.5S-273.1,390.9-275,389L-275,389z"/>
<path class="st0" d="M-281.5,394.1v-0.9c0-0.5,0.3-0.6,0.5-0.6s1.3,0,1.3,0v-2h-1.8c-2,0-2.5,1.5-2.5,2.5v1.1h-1.2v1.4v0.9h1.2
	c0,2.7,0,5.9,0,5.9h2.3c0,0,0-3.2,0-5.9h1.7l0.1-0.9l0.1-1.4h-1.7V394.1z"/>
</svg>
