<svg xmlns="http://www.w3.org/2000/svg" width="16" height="16" viewBox="0 0 16 16">
  <path fill="#CCC" fill-rule="evenodd" d="M7.5,13 C7.77614237,13 8,12.7761424 8,12.5 C8,12.4957925 8,11.3291258 8,9 C10.9315745,9 13,9 15.1131426,11.8167905 C15.204839,11.9286361 15.3440855,12 15.5,12 C15.7761424,12 16,11.7761424 16,11.5 C16,6 12.9880205,4 8,4 L8,0.521742206 C8,0.223857625 7.77614237,0 7.5,0 C7.36896331,0 7.24969983,0.0504070874 7.16054233,0.132888488 L0.183462307,6.11277913 C0.071376778,6.20481388 0,6.34407147 0,6.5 C0,6.65511785 0.0706365273,6.79373766 0.181498295,6.88544813 L7.1580964,12.8654787 C7.24872063,12.9491781 7.36842527,13 7.5,13 Z" transform="translate(0 1)"/>
</svg>
