<?xml version="1.0" encoding="utf-8"?>
<!-- Generator: Adobe Illustrator 19.0.0, SVG Export Plug-In . SVG Version: 6.00 Build 0)  -->
<svg version="1.1" id="Layer_1" xmlns="http://www.w3.org/2000/svg" xmlns:xlink="http://www.w3.org/1999/xlink" x="0px" y="0px"
	 viewBox="-294 385 23 23" style="enable-background:new -294 385 23 23;" xml:space="preserve">
<style type="text/css">
	.st0{fill:#FFFFFF;}
</style>
<path class="st0" d="M-282.5,385c3.2,0,6,1.3,8.1,3.4s3.4,5,3.4,8.1c0,3.2-1.3,6-3.4,8.1s-5,3.4-8.1,3.4c-3.2,0-6-1.3-8.1-3.4
	s-3.4-5-3.4-8.1c0-3.2,1.3-6.1,3.4-8.1C-288.5,386.3-285.6,385-282.5,385L-282.5,385z M-275,389c-1.9-1.9-4.6-3.1-7.5-3.1
	s-5.6,1.2-7.5,3.1s-3.1,4.6-3.1,7.5s1.2,5.6,3.1,7.5s4.6,3.1,7.5,3.1s5.6-1.2,7.5-3.1s3.1-4.6,3.1-7.5S-273,390.9-275,389L-275,389z
	"/>
<path class="st0" d="M-276.7,392.8c-0.4,0.2-0.9,0.3-1.4,0.4c0.5-0.3,0.9-0.8,1.1-1.3c-0.5,0.3-1,0.5-1.5,0.6
	c-0.4-0.5-1.1-0.8-1.8-0.8c-1.3,0-2.4,1.1-2.4,2.4c0,0.2,0,0.4,0.1,0.5c-2-0.1-3.8-1-5-2.5c-0.2,0.4-0.3,0.8-0.3,1.2
	c0,0.8,0.4,1.6,1.1,2c-0.4,0-0.8-0.1-1.1-0.3l0,0c0,0.3,0.1,0.6,0.2,0.9c0.3,0.7,1,1.3,1.8,1.5c-0.2,0.1-0.4,0.1-0.6,0.1
	s-0.3,0-0.5-0.1c0.3,0.9,1.2,1.6,2.2,1.7c-0.8,0.6-1.9,1-3,1c-0.2,0-0.4,0-0.6,0c1.1,0.7,2.3,1.1,3.7,1.1c3.8,0,6.1-2.6,6.7-5.3
	c0.1-0.5,0.2-1,0.2-1.4c0-0.1,0-0.2,0-0.3C-277.4,393.8-277,393.3-276.7,392.8L-276.7,392.8z"/>
</svg>
