<?xml version="1.0" encoding="utf-8"?>
<!-- Generator: Adobe Illustrator 19.0.0, SVG Export Plug-In . SVG Version: 6.00 Build 0)  -->
<svg version="1.1" id="Layer_1" xmlns="http://www.w3.org/2000/svg" xmlns:xlink="http://www.w3.org/1999/xlink" x="0px" y="0px"
	 viewBox="-294 385 23 23" style="enable-background:new -294 385 23 23;" xml:space="preserve">
<style type="text/css">
	.st0{fill:#FFFFFF;}
</style>
<path class="st0" d="M-282.5,385c3.2,0,6,1.3,8.1,3.4s3.4,5,3.4,8.1c0,3.2-1.3,6-3.4,8.1s-5,3.4-8.1,3.4c-3.2,0-6.1-1.3-8.1-3.4
	c-2.1-2.1-3.4-5-3.4-8.1c0-3.2,1.3-6,3.4-8.1S-285.7,385-282.5,385L-282.5,385z M-275,389c-1.9-1.9-4.6-3.1-7.5-3.1
	s-5.6,1.2-7.5,3.1s-3.1,4.6-3.1,7.5s1.2,5.6,3.1,7.5s4.6,3.1,7.5,3.1s5.6-1.2,7.5-3.1s3.1-4.6,3.1-7.5S-273.1,390.9-275,389
	L-275,389z"/>
<path class="st0" d="M-276.7,396.2c-0.1-3.1-2.6-5.6-5.8-5.6c-3.1,0-5.6,2.4-5.7,5.5c0,0.1,0,0.2,0,0.2c0,1.1,0.3,2.1,0.8,3l-1,3.1
	l3.2-1c0.8,0.5,1.8,0.7,2.8,0.7c3.2,0,5.8-2.6,5.8-5.7C-276.7,396.3-276.7,396.2-276.7,396.2L-276.7,396.2z M-279.8,397.5
	c-0.1-0.1-0.8-0.4-1-0.5c-0.1,0-0.2-0.1-0.3,0.1c-0.1,0.1-0.4,0.5-0.4,0.5c-0.1,0.1-0.2,0.1-0.3,0c-0.2-0.1-0.6-0.2-1.1-0.7
	c-0.4-0.4-0.7-0.8-0.8-1c-0.1-0.2,0-0.2,0.1-0.3s0.1-0.2,0.2-0.2c0,0,0,0,0.1-0.1c0-0.1,0.1-0.1,0.1-0.2c0.1-0.1,0-0.2,0-0.2
	c0-0.1-0.3-0.8-0.4-1c-0.1-0.3-0.2-0.2-0.3-0.2c-0.1,0-0.2,0-0.3,0c-0.1,0-0.2,0-0.4,0.2c-0.1,0.1-0.5,0.5-0.5,1.2
	c0,0.2,0,0.3,0.1,0.5c0.1,0.5,0.5,0.9,0.5,1c0.1,0.1,1,1.6,2.4,2.1c1.4,0.6,1.4,0.4,1.7,0.4c0.3,0,0.8-0.3,1-0.7
	c0.1-0.3,0.1-0.6,0.1-0.7C-279.6,397.6-279.7,397.5-279.8,397.5L-279.8,397.5z M-282.5,401.1c-1,0-1.9-0.3-2.7-0.8l-1.9,0.6l0.6-1.8
	c-0.6-0.8-0.9-1.8-0.9-2.8c0-0.2,0-0.3,0-0.5c0.2-2.4,2.3-4.3,4.8-4.3s4.6,2,4.8,4.4c0,0.1,0,0.3,0,0.4
	C-277.6,399-279.8,401.1-282.5,401.1L-282.5,401.1z"/>
</svg>
